<svg width="21" height="20" viewBox="0 0 21 20" fill="none" xmlns="http://www.w3.org/2000/svg">
<path d="M16.7236 18.3333H3.39022C3.1692 18.3333 2.95724 18.2455 2.80096 18.0892C2.64468 17.9329 2.55688 17.721 2.55688 17.5V2.49996C2.55688 2.27895 2.64468 2.06698 2.80096 1.9107C2.95724 1.75442 3.1692 1.66663 3.39022 1.66663H16.7236C16.9446 1.66663 17.1565 1.75442 17.3128 1.9107C17.4691 2.06698 17.5569 2.27895 17.5569 2.49996V17.5C17.5569 17.721 17.4691 17.9329 17.3128 18.0892C17.1565 18.2455 16.9446 18.3333 16.7236 18.3333ZM15.8902 16.6666V3.33329H4.22355V16.6666H15.8902ZM7.55688 4.99996V6.66663C7.55688 7.32967 7.82028 7.96555 8.28912 8.43439C8.75796 8.90323 9.39384 9.16663 10.0569 9.16663C10.7199 9.16663 11.3558 8.90323 11.8247 8.43439C12.2935 7.96555 12.5569 7.32967 12.5569 6.66663V4.99996H14.2236V6.66663C14.2236 7.7717 13.7846 8.8315 13.0032 9.6129C12.2218 10.3943 11.162 10.8333 10.0569 10.8333C8.95182 10.8333 7.89201 10.3943 7.11061 9.6129C6.3292 8.8315 5.89022 7.7717 5.89022 6.66663V4.99996H7.55688Z" fill="white"/>
</svg>
