<svg width="16" height="16" viewBox="0 0 16 16" fill="none" xmlns="http://www.w3.org/2000/svg">
<path d="M7.98252 1.33337C11.6565 1.33337 14.6346 4.31804 14.6346 8.00004C14.6346 11.682 11.6565 14.6667 7.98252 14.6667C4.30858 14.6667 1.33044 11.682 1.33044 8.00004C1.33044 4.31804 4.30858 1.33337 7.98252 1.33337ZM7.98252 2.66671C6.57113 2.66671 5.21754 3.22861 4.21954 4.2288C3.22153 5.229 2.66086 6.58555 2.66086 8.00004C2.66086 9.41453 3.22153 10.7711 4.21954 11.7713C5.21754 12.7715 6.57113 13.3334 7.98252 13.3334C9.39392 13.3334 10.7475 12.7715 11.7455 11.7713C12.7435 10.7711 13.3042 9.41453 13.3042 8.00004C13.3042 6.58555 12.7435 5.229 11.7455 4.2288C10.7475 3.22861 9.39392 2.66671 7.98252 2.66671V2.66671ZM10.5323 4.89137C10.6086 4.83774 10.7013 4.81281 10.7942 4.82098C10.887 4.82915 10.974 4.8699 11.0398 4.93604C11.1055 5.00187 11.1458 5.0889 11.1534 5.18168C11.1611 5.27445 11.1357 5.36694 11.0817 5.44271C9.63157 7.47337 8.83332 8.56137 8.68831 8.70737C8.50099 8.89472 8.24716 8.99994 7.98252 8.99994C7.71788 8.99994 7.46406 8.89472 7.27674 8.70737C7.0898 8.51965 6.98481 8.26526 6.98481 8.00004C6.98481 7.73482 7.0898 7.48044 7.27674 7.29271C7.52553 7.04404 8.61048 6.24337 10.5323 4.89137ZM11.6412 7.33337C11.8176 7.33337 11.9868 7.40361 12.1115 7.52864C12.2363 7.65366 12.3064 7.82323 12.3064 8.00004C12.3064 8.17685 12.2363 8.34642 12.1115 8.47145C11.9868 8.59647 11.8176 8.66671 11.6412 8.66671C11.4647 8.66671 11.2955 8.59647 11.1708 8.47145C11.046 8.34642 10.976 8.17685 10.976 8.00004C10.976 7.82323 11.046 7.65366 11.1708 7.52864C11.2955 7.40361 11.4647 7.33337 11.6412 7.33337ZM4.32388 7.33337C4.5003 7.33337 4.6695 7.40361 4.79425 7.52864C4.919 7.65366 4.98909 7.82323 4.98909 8.00004C4.98909 8.17685 4.919 8.34642 4.79425 8.47145C4.6695 8.59647 4.5003 8.66671 4.32388 8.66671C4.14746 8.66671 3.97826 8.59647 3.85351 8.47145C3.72876 8.34642 3.65867 8.17685 3.65867 8.00004C3.65867 7.82323 3.72876 7.65366 3.85351 7.52864C3.97826 7.40361 4.14746 7.33337 4.32388 7.33337ZM5.86583 4.93604C5.99056 5.06122 6.06057 5.23094 6.06044 5.40785C6.06032 5.58475 5.99008 5.75437 5.86517 5.87937C5.74026 6.00438 5.57092 6.07454 5.39439 6.07441C5.21787 6.07429 5.04863 6.00389 4.9239 5.87871C4.86214 5.81672 4.81316 5.74316 4.77977 5.6622C4.74638 5.58125 4.72923 5.4945 4.72929 5.4069C4.72935 5.31931 4.74663 5.23258 4.78013 5.15167C4.81364 5.07077 4.86271 4.99727 4.92456 4.93537C5.04947 4.81037 5.21881 4.74021 5.39534 4.74034C5.48274 4.7404 5.56928 4.75771 5.65 4.79129C5.73073 4.82487 5.80407 4.87406 5.86583 4.93604V4.93604ZM7.98252 3.66671C8.15895 3.66671 8.32815 3.73695 8.4529 3.86197C8.57765 3.98699 8.64773 4.15656 8.64773 4.33337C8.64773 4.51019 8.57765 4.67975 8.4529 4.80478C8.32815 4.9298 8.15895 5.00004 7.98252 5.00004C7.8061 5.00004 7.6369 4.9298 7.51215 4.80478C7.3874 4.67975 7.31732 4.51019 7.31732 4.33337C7.31732 4.15656 7.3874 3.98699 7.51215 3.86197C7.6369 3.73695 7.8061 3.66671 7.98252 3.66671V3.66671Z" fill="white"/>
</svg>
