<svg width="360" height="575" viewBox="0 0 360 575" fill="none" xmlns="http://www.w3.org/2000/svg">
<g clip-path="url(#clip0_76_313)">
<rect width="360" height="575" fill="#0A0A0B"/>
<path d="M115.581 348.728C117.485 353.135 119.709 362.227 120.948 365.125M120.948 365.125C129.262 360.996 140.088 356.005 153.124 352.364C166.161 348.724 168.871 347.712 173.719 347.853C185.214 347.273 186.101 347.478 188.617 347.755M120.948 365.125L134.76 392.452M188.617 347.755C189.884 347.658 250.324 315.138 250.324 315.138L297.643 289.142L309.663 285.208M188.617 347.755C187.189 358.781 181.88 366.839 174.802 377.942M353.788 301.021L342.222 290.475L331.953 285.874M265.559 345.821L272.504 334.313L292.805 329.898L320.136 349.934L297.436 389.211L277.688 423.382M265.559 345.821L256.178 348.892L219.238 360.982C216.333 362.112 202.032 370.347 196.62 372.206C191.208 374.065 188.617 375.623 174.046 379.594M265.559 345.821L235.523 398.841M174.046 379.594L134.76 392.452M174.046 379.594L174.802 377.942M134.76 392.452C139.22 394.177 158.565 405.681 158.565 405.681M134.76 392.452L90.3261 473.875M158.565 405.681L174.802 377.942M158.565 405.681L175.363 415.47M213.511 437.699L255.896 461.088M213.511 437.699L235.523 398.841M213.511 437.699L191.965 475.006M213.511 437.699L186.038 421.69M255.896 461.088L277.688 423.382M255.896 461.088L316.286 493.872M255.896 461.088L233.659 499.259M235.523 398.841L277.688 423.382M277.688 423.382L319.466 444.79L316.286 493.872M316.286 493.872L285.988 530.222L233.659 499.259M233.659 499.259L191.965 475.006M233.659 499.259L213.242 540.018M191.965 475.006L163.889 460.627M191.965 475.006L175.15 515.86M163.889 460.627L186.038 421.69M163.889 460.627L156.342 456.409M186.038 421.69L175.363 415.47M175.363 415.47L156.342 456.409M156.342 456.409L137.214 495.154M137.214 495.154L175.15 515.86M137.214 495.154L90.3261 473.875M175.15 515.86L213.242 540.018M213.242 540.018L223.993 545.098M90.3261 473.875L71.3025 503.987L33.431 485.49L53.5084 449.618M113.645 347.769C135.621 340.219 146.455 336.705 164.071 331.266L242.773 285.125L288.973 254.717L313.342 269.672M313.342 269.672L309.663 285.208M313.342 269.672L321.683 281.273L309.663 285.208M112.65 398.283L27.4951 406.857L17.2399 427.093L53.5084 449.618M66.9412 457.961L53.5084 449.618" stroke="url(#paint0_linear_76_313)" stroke-opacity="0.4" stroke-width="5"/>
<path d="M118.654 356.098L144.482 348.9M153.374 352.288L158.455 362.026M185.977 348.9L158.455 362.026M210.959 337.468L203.761 326.459L232.977 315.45L252.877 334.081L196.563 362.026M168.194 409.449L175.815 398.017L170.734 386.161L231.822 368.166M172.428 362.873L170.734 362.771M158.455 362.026L170.734 362.771M128.392 375.576L148.716 368.166L170.734 370.918L170.734 362.771M148.716 402.251L134.32 432.737L147.87 438.242L163.113 410.719M168.194 415.8L158.455 432.737M223.238 381.504L238.905 390.395M223.238 381.504L240.406 354.828M223.238 381.504L209.265 404.792M172.428 403.098L203.761 421.728M191.905 403.098L223.238 421.728M134.32 384.468L144.482 380.233M288.021 330.27L280.823 344.243M271.508 393.359L259.229 386.161L273.625 358.216M271.508 393.359L288.021 362.873M271.508 393.359C268.12 411.143 278.515 407.366 275.319 406.909M271.508 393.359L322.859 420.36M288.021 362.873L273.625 358.216M288.021 362.873L298.183 368.166M273.625 358.216L280.823 344.243M280.823 344.243L306.652 354.828L298.183 368.166M298.183 368.166L288.021 386.161L277.93 381.504M234.247 446.71C235.263 445.694 243.139 432.173 246.95 425.539L267.697 436.125L259.229 452.214L227.896 436.125M175.815 436.125L187.671 442.052M187.671 442.052L187.671 431.044L200.374 438.242L187.671 461.953L187.671 442.052ZM187.671 442.052L177.932 456.025M221.544 443.746L209.265 467.881M209.265 467.881L227.896 477.196L221.544 458.142M209.265 467.881L203.761 474.232L227.896 488.205L237.211 467.881L221.544 458.142M209.265 467.881L221.544 458.142M209.265 467.881L200.374 464.07M221.544 458.142L207.148 448.827C190.002 443.222 181.342 434.409 160.572 450.373M105.104 452.214C111.709 458.102 116.362 460.923 128.392 464.07L120.347 474.232C118.036 478.349 116.382 480.22 97.4829 464.07L105.104 452.214ZM105.104 452.214C142.229 458.819 153.315 457.914 160.572 450.373M160.572 450.373C166.669 464.379 164.806 476.067 163.113 480.16L139.825 470.421L136.861 474.232L158.455 483.547L151.68 502.178L117.384 531.394L94.0955 506.835M94.0955 506.835L83.9335 496.25M94.0955 506.835L83.9335 518.268L72.5012 511.493L83.9335 496.25M83.9335 496.25C83.9335 496.25 83.0866 485.241 94.0955 483.547C105.104 481.854 110.185 492.439 110.185 492.439C110.401 496.798 106.598 498.165 83.9335 496.25ZM72.5012 421.728L108.068 436.125L71.2309 503.448L64.8796 502.178L130.509 384.468L116.537 347.207L52.1771 378.54L56.4113 386.161L134.32 390.395M20.8441 386.161L38.2043 406.062L50.06 410.719L44.4144 419.188M44.4144 419.188L40.7448 424.692L32.2764 421.728L35.2403 415.8L44.4144 419.188ZM38.2043 440.782C38.2043 440.782 32.2764 444.593 32.2764 452.214C32.2764 459.836 40.7448 470.421 40.7448 470.421L35.2403 483.547C35.2403 483.547 28.4656 487.782 27.1954 480.16C25.9251 472.539 46.2492 446.287 46.2492 446.287M205.031 507.682L196.986 515.158M141.518 545.79L172.428 568.655L191.905 546.637L151.68 521.232L142.789 531.394L163.113 546.637L196.986 515.158M141.518 545.79L168.194 521.232L151.68 511.493L128.392 536.475L141.518 545.79ZM187.671 511.493L196.986 496.25L218.157 507.682L203.761 521.232M203.761 521.232L196.986 515.158M203.761 521.232L211.382 529.277L242.292 509.308M242.292 509.308L259.229 498.367L278.706 511.493L253.724 533.087L230.436 515.158L242.292 509.308ZM242.292 509.308L253.724 523.349L270.661 542.403L310.039 491.169L294.796 483.547L308.769 466.187M284.21 477.196L296.913 458.142L286.751 452.214L297.76 434.854" stroke="url(#paint1_linear_76_313)" stroke-opacity="0.4" stroke-width="2"/>
<g filter="url(#filter0_i_76_313)">
<path d="M198.672 301.54C296.554 238.258 280.857 246.699 323.877 212.359L323.877 121.422C298.316 142.61 232.8 192.814 222.614 196.99C212.428 201.167 122.612 226.353 65.3612 243.171L-48.708 273.016L-4.98232 391.919C71.0487 358.668 111.631 341.22 198.672 301.54Z" fill="#054ACA" fill-opacity="0.4"/>
</g>
<path d="M53.9189 240.937L42.2584 244.865L-68.8572 270.753L-67.2116 215.619L34.1521 180.459L53.9189 240.937ZM53.9189 240.937L124.284 217.231L127.501 216.147M164.895 203.549L223.6 183.772L240.73 171.977M164.895 203.549L151.141 170.01L125.17 149.084L93.6993 156.04L108.2 178.009L115.269 195.246L127.501 216.147M164.895 203.549L127.501 216.147M240.73 171.977L294.26 135.117L250.011 91.9393L185.951 131.023C202.141 142.974 235.761 167.896 240.73 171.977Z" stroke="url(#paint2_linear_76_313)" stroke-opacity="0.5" stroke-width="5"/>
<path d="M19.15 205.784L47.0956 197.316L60.645 236.27L39.0507 246.009L33.1228 232.036L68.69 183.766L106.374 175.721L111.455 186.307L144.482 179.956L152.527 195.199L161.419 192.235L158.248 186.307M158.248 186.307L151.68 174.028L172.851 170.217L179.202 183.766L158.248 186.307ZM166.5 177.839L232.976 179.956" stroke="#054ACA" stroke-opacity="0.2" stroke-width="2"/>
<path d="M138.169 493.404L175.43 415.919L135.205 392.631L121.656 365.108L135.205 358.334" stroke="#054ACA" stroke-opacity="0.3" stroke-width="2"/>
<g filter="url(#filter1_di_76_313)">
<circle cx="132.842" cy="391.857" r="9.84017" fill="#054ACA"/>
</g>
<circle cx="132.842" cy="391.857" r="13.412" stroke="white"/>
<path d="M258.389 159.425L223.1 183.856L126.735 215.752L115.198 195.732L106.715 175.373L74.8192 182.16" stroke="#0059FF" stroke-width="4" stroke-linecap="round"/>
<circle cx="260.086" cy="157.39" r="14.9299" fill="#0059FF" fill-opacity="0.25"/>
<g filter="url(#filter2_d_76_313)">
<path d="M253.811 164.332C252.954 164.581 252.225 163.67 252.656 162.889L260.081 149.416C260.518 148.623 261.699 148.772 261.925 149.649L263.406 155.397C263.478 155.675 263.666 155.909 263.922 156.039L268.37 158.299C269.178 158.709 269.067 159.897 268.196 160.15L253.811 164.332Z" fill="white"/>
</g>
<path d="M87.2133 183.178C87.2133 193.396 78.9298 201.679 68.7116 201.679C58.4933 201.679 50.2098 193.396 50.2098 183.178C50.2098 172.959 58.4933 164.676 68.7116 164.676C78.9298 164.676 87.2133 172.959 87.2133 183.178Z" fill="#034EDA" fill-opacity="0.33" stroke="white"/>
<g filter="url(#filter3_d_76_313)">
<circle cx="68.3722" cy="182.838" r="9.84017" fill="#054ACA"/>
</g>
</g>
<defs>
<filter id="filter0_i_76_313" x="-48.708" y="121.422" width="372.585" height="274.497" filterUnits="userSpaceOnUse" color-interpolation-filters="sRGB">
<feFlood flood-opacity="0" result="BackgroundImageFix"/>
<feBlend mode="normal" in="SourceGraphic" in2="BackgroundImageFix" result="shape"/>
<feColorMatrix in="SourceAlpha" type="matrix" values="0 0 0 0 0 0 0 0 0 0 0 0 0 0 0 0 0 0 127 0" result="hardAlpha"/>
<feOffset dy="4"/>
<feGaussianBlur stdDeviation="2"/>
<feComposite in2="hardAlpha" operator="arithmetic" k2="-1" k3="1"/>
<feColorMatrix type="matrix" values="0 0 0 0 0 0 0 0 0 0 0 0 0 0 0 0 0 0 0.25 0"/>
<feBlend mode="normal" in2="shape" result="effect1_innerShadow_76_313"/>
</filter>
<filter id="filter1_di_76_313" x="75.0022" y="338.017" width="115.68" height="115.68" filterUnits="userSpaceOnUse" color-interpolation-filters="sRGB">
<feFlood flood-opacity="0" result="BackgroundImageFix"/>
<feColorMatrix in="SourceAlpha" type="matrix" values="0 0 0 0 0 0 0 0 0 0 0 0 0 0 0 0 0 0 127 0" result="hardAlpha"/>
<feOffset dy="4"/>
<feGaussianBlur stdDeviation="24"/>
<feComposite in2="hardAlpha" operator="out"/>
<feColorMatrix type="matrix" values="0 0 0 0 0.0211112 0 0 0 0 0.290806 0 0 0 0 0.791667 0 0 0 1 0"/>
<feBlend mode="normal" in2="BackgroundImageFix" result="effect1_dropShadow_76_313"/>
<feBlend mode="normal" in="SourceGraphic" in2="effect1_dropShadow_76_313" result="shape"/>
<feColorMatrix in="SourceAlpha" type="matrix" values="0 0 0 0 0 0 0 0 0 0 0 0 0 0 0 0 0 0 127 0" result="hardAlpha"/>
<feOffset dy="4"/>
<feGaussianBlur stdDeviation="2"/>
<feComposite in2="hardAlpha" operator="arithmetic" k2="-1" k3="1"/>
<feColorMatrix type="matrix" values="0 0 0 0 0 0 0 0 0 0.177917 0 0 0 0 0.508333 0 0 0 1 0"/>
<feBlend mode="normal" in2="shape" result="effect2_innerShadow_76_313"/>
</filter>
<filter id="filter2_d_76_313" x="241.528" y="135.898" width="38.3889" height="37.4757" filterUnits="userSpaceOnUse" color-interpolation-filters="sRGB">
<feFlood flood-opacity="0" result="BackgroundImageFix"/>
<feColorMatrix in="SourceAlpha" type="matrix" values="0 0 0 0 0 0 0 0 0 0 0 0 0 0 0 0 0 0 127 0" result="hardAlpha"/>
<feOffset dy="-2"/>
<feGaussianBlur stdDeviation="5.5"/>
<feComposite in2="hardAlpha" operator="out"/>
<feColorMatrix type="matrix" values="0 0 0 0 1 0 0 0 0 1 0 0 0 0 1 0 0 0 0.57 0"/>
<feBlend mode="normal" in2="BackgroundImageFix" result="effect1_dropShadow_76_313"/>
<feBlend mode="normal" in="SourceGraphic" in2="effect1_dropShadow_76_313" result="shape"/>
</filter>
<filter id="filter3_d_76_313" x="10.532" y="128.998" width="115.68" height="115.68" filterUnits="userSpaceOnUse" color-interpolation-filters="sRGB">
<feFlood flood-opacity="0" result="BackgroundImageFix"/>
<feColorMatrix in="SourceAlpha" type="matrix" values="0 0 0 0 0 0 0 0 0 0 0 0 0 0 0 0 0 0 127 0" result="hardAlpha"/>
<feOffset dy="4"/>
<feGaussianBlur stdDeviation="24"/>
<feComposite in2="hardAlpha" operator="out"/>
<feColorMatrix type="matrix" values="0 0 0 0 0.0211112 0 0 0 0 0.290806 0 0 0 0 0.791667 0 0 0 1 0"/>
<feBlend mode="normal" in2="BackgroundImageFix" result="effect1_dropShadow_76_313"/>
<feBlend mode="normal" in="SourceGraphic" in2="effect1_dropShadow_76_313" result="shape"/>
</filter>
<linearGradient id="paint0_linear_76_313" x1="165.693" y1="295.065" x2="246.849" y2="543.032" gradientUnits="userSpaceOnUse">
<stop stop-color="#054ACA"/>
<stop offset="1" stop-color="#054ACA" stop-opacity="0.05"/>
</linearGradient>
<linearGradient id="paint1_linear_76_313" x1="165.442" y1="315.45" x2="165.442" y2="568.655" gradientUnits="userSpaceOnUse">
<stop stop-color="#054ACA"/>
<stop offset="1" stop-color="#054ACA" stop-opacity="0.05"/>
</linearGradient>
<linearGradient id="paint2_linear_76_313" x1="91.2543" y1="150.635" x2="121.939" y2="225.461" gradientUnits="userSpaceOnUse">
<stop stop-color="#054ACA" stop-opacity="0"/>
<stop offset="1" stop-color="#054ACA"/>
</linearGradient>
<clipPath id="clip0_76_313">
<rect width="360" height="575" fill="white"/>
</clipPath>
</defs>
</svg>
